HIERARCHY
ROOT Hips
{
    OFFSET 0.000000 0.000000 0.000000
    CHANNELS 6 Xposition Yposition Zposition Zrotation Xrotation Yrotation
    JOINT Spine
    {
        OFFSET -0.000000 7.236184 0.000000
        CHANNELS 3 Zrotation Xrotation Yrotation
        JOINT Spine1
        {
            OFFSET -0.000000 20.420147 0.000000
            CHANNELS 3 Zrotation Xrotation Yrotation
            JOINT Neck
            {
                OFFSET -0.000000 20.336288 1.848754
                CHANNELS 3 Zrotation Xrotation Yrotation
                JOINT Head
                {
                    OFFSET -0.000000 12.354461 -1.764923
                    CHANNELS 3 Zrotation Xrotation Yrotation
                    End Site
                    {
                        OFFSET -0.000000 22.061537 0.000000
                    }
                }
            }
            JOINT LeftShoulder
            {
                OFFSET 3.573296 18.396038 -0.314103
                CHANNELS 3 Zrotation Xrotation Yrotation
                JOINT LeftArm
                {
                    OFFSET 10.880760 0.000000 0.000000
                    CHANNELS 3 Zrotation Xrotation Yrotation
                    JOINT LeftForeArm
                    {
                        OFFSET 27.185530 0.000000 0.000000
                        CHANNELS 3 Zrotation Xrotation Yrotation
                        JOINT LeftHand
                        {
                            OFFSET 27.825975 0.000000 0.000000
                            CHANNELS 3 Zrotation Xrotation Yrotation
                            End Site
                            {
                                OFFSET 13.236923 0.000000 0.000000
                            }
                        }
                    }
                }
            }
            JOINT RightShoulder
            {
                OFFSET -3.474926 18.396038 -0.314103
                CHANNELS 3 Zrotation Xrotation Yrotation
                JOINT RightArm
                {
                    OFFSET -10.880760 0.000000 0.000000
                    CHANNELS 3 Zrotation Xrotation Yrotation
                    JOINT RightForeArm
                    {
                        OFFSET -27.185530 0.000000 0.000000
                        CHANNELS 3 Zrotation Xrotation Yrotation
                        JOINT RightHand
                        {
                            OFFSET -27.825975 0.000000 0.000000
                            CHANNELS 3 Zrotation Xrotation Yrotation
                            End Site
                            {
                                OFFSET -13.236923 0.000000 0.000000
                            }
                        }
                    }
                }
            }
        }
    }
    JOINT LeftUpLeg
    {
        OFFSET 8.824615 0.000000 0.000000
        CHANNELS 3 Zrotation Xrotation Yrotation
        JOINT LeftLeg
        {
            OFFSET -0.000000 -35.111282 0.000000
            CHANNELS 3 Zrotation Xrotation Yrotation
            JOINT LeftFoot
            {
                OFFSET -0.000000 -42.324711 0.000000
                CHANNELS 3 Zrotation Xrotation Yrotation
                JOINT LeftToeBase
                {
                    OFFSET -0.000000 -5.735999 13.236923
                    CHANNELS 3 Zrotation Xrotation Yrotation
                    End Site
                    {
                        OFFSET -0.000000 0.000000 3.529846
                    }
                }
            }
        }
    }
    JOINT RightUpLeg
    {
        OFFSET -8.824615 0.000000 0.000000
        CHANNELS 3 Zrotation Xrotation Yrotation
        JOINT RightLeg
        {
            OFFSET -0.000000 -35.111282 0.000000
            CHANNELS 3 Zrotation Xrotation Yrotation
            JOINT RightFoot
            {
                OFFSET -0.000000 -42.324711 0.000000
                CHANNELS 3 Zrotation Xrotation Yrotation
                JOINT RightToeBase
                {
                    OFFSET -0.000000 -5.735999 13.236923
                    CHANNELS 3 Zrotation Xrotation Yrotation
                    End Site
                    {
                        OFFSET -0.000000 0.000000 3.529846
                    }
                }
            }
        }
    }
}
MOTION
Frames:    10
Frame Time:    0.008333
-9.126709    80.473236    105.920181    -1.987506    -11.347039    -176.903152    -2.339084    -16.107922    0.452087    -0.267446    9.795681    0.806025    2.536229    -0.084805    -0.534337    2.292392    -12.329907    -0.368354    -0.671176    18.957382    -3.376351    -33.213169    46.085060    -51.138851    -1.734829    -5.523010    -19.314905    15.698433    -5.538379    2.029412    8.170516    19.169304    -5.257928    27.565187    48.818821    50.200253    0.703107    -11.434743    26.422905    -5.502108    -11.529642    -1.419902    -3.083468    -14.300394    -6.738164    -1.373867    17.665873    -1.008246    0.189293    -13.697448    -5.514774    -0.308296    1.702165    0.340706    -2.035985    -7.619215    3.676138    4.052779    5.510353    4.212903    -6.465817    -7.757120    -13.989229    -1.078944    -0.696676    1.168079    
-9.113800    80.464653    105.874084    -2.006545    -11.365953    -176.909317    -2.362476    -16.129227    0.475651    -0.286073    9.802691    0.834929    2.540739    -0.039505    -0.566196    2.349161    -12.281054    -0.388015    -0.660710    18.943554    -3.355851    -33.356068    45.938774    -50.991879    -1.841627    -5.501388    -19.534903    15.123964    -5.549977    2.020321    8.144412    19.138321    -5.210655    27.413034    48.808609    50.239841    0.904746    -11.766226    26.818518    -4.864503    -11.919683    -1.386856    -3.092494    -14.308190    -6.782673    -1.397462    17.700544    -0.932938    0.191691    -13.705967    -5.525532    -0.301915    1.719573    0.333644    -2.035264    -7.650976    3.672915    4.044843    5.596875    4.232760    -6.485005    -7.782218    -14.013391    -1.087571    -0.613546    1.177283    
-9.100901    80.456284    105.827972    -2.024175    -11.383796    -176.913803    -2.384391    -16.149429    0.498548    -0.304916    9.810079    0.863107    2.545223    0.005000    -0.598020    2.405283    -12.234332    -0.407875    -0.650048    18.929487    -3.335395    -33.496250    45.792164    -50.846546    -1.948544    -5.477413    -19.760702    14.537375    -5.560055    2.009938    8.118760    19.107891    -5.164287    27.264315    48.796333    50.277000    1.106906    -12.095303    27.215857    -4.228193    -12.308767    -1.342617    -3.100669    -14.315784    -6.824689    -1.419454    17.736675    -0.862983    0.193720    -13.715355    -5.535439    -0.295529    1.735813    0.326577    -2.033298    -7.681123    3.668848    4.036855    5.682695    4.252749    -6.504826    -7.807052    -14.038088    -1.096641    -0.528585    1.186961    
-9.088246    80.448456    105.782570    -2.038786    -11.399253    -176.915100    -2.403095    -16.167034    0.520114    -0.323680    9.817959    0.889278    2.548971    0.046216    -0.629474    2.459954    -12.190701    -0.427637    -0.639083    18.915161    -3.315795    -33.630421    45.647873    -50.705242    -2.052673    -5.449639    -19.994762    13.940821    -5.566570    1.998845    8.094331    19.078602    -5.120356    27.127537    48.778503    50.307297    1.305971    -12.412547    27.610067    -3.610521    -12.686188    -1.287758    -3.106883    -14.322488    -6.862616    -1.438636    17.774488    -0.801940    0.194963    -13.726146    -5.544382    -0.289293    1.749981    0.319678    -2.028755    -7.707804    3.662849    4.028525    5.765973    4.271592    -6.524149    -7.831471    -14.061715    -1.106231    -0.442506    1.197198    
-9.075681    80.441177    105.737129    -2.049605    -11.411665    -176.912094    -2.417903    -16.181778    0.540170    -0.342534    9.827085    0.913433    2.552127    0.084355    -0.660910    2.512831    -12.150982    -0.447796    -0.627603    18.899807    -3.297043    -33.759609    45.504211    -50.565449    -2.154833    -5.416708    -20.246206    13.319507    -5.568747    1.987059    8.070792    19.050243    -5.078735    27.000988    48.754894    50.330906    1.502397    -12.720709    28.009893    -3.008480    -13.054772    -1.221345    -3.110412    -14.327558    -6.897469    -1.455158    17.814522    -0.750250    0.195392    -13.738582    -5.551748    -0.283090    1.761067    0.312818    -2.020524    -7.730146    3.653762    4.019350    5.847491    4.288437    -6.541978    -7.856375    -14.083173    -1.116862    -0.353363    1.208555    
-9.063321    80.434547    105.691956    -2.055878    -11.420460    -176.904114    -2.427999    -16.192907    0.558358    -0.361382    9.837327    0.934991    2.554346    0.118046    -0.692127    2.563555    -12.115285    -0.468110    -0.615108    18.883429    -3.279407    -33.881912    45.362801    -50.428661    -2.253883    -5.379655    -20.517881    12.672436    -5.567490    1.974497    8.048494    19.022495    -5.040308    26.886232    48.726505    50.346786    1.692480    -13.014848    28.415205    -2.431811    -13.408466    -1.142922    -3.110760    -14.330423    -6.929764    -1.468796    17.856396    -0.708217    0.194910    -13.752716    -5.557467    -0.277006    1.768637    0.306091    -2.008062    -7.747135    3.641384    4.009382    5.925965    4.301961    -6.559805    -7.881598    -14.101778    -1.128858    -0.261856    1.221381    
-9.051172    80.428551    105.646790    -2.057628    -11.425418    -176.891037    -2.433493    -16.200413    0.574837    -0.379925    9.848881    0.953998    2.555476    0.147553    -0.723166    2.611838    -12.083825    -0.488819    -0.601423    18.865423    -3.264014    -33.997959    45.223465    -50.292812    -2.350280    -5.341031    -20.815367    11.990246    -5.565862    1.960061    8.027136    18.995399    -5.004840    26.784584    48.692379    50.353218    1.875710    -13.293629    28.830870    -1.879699    -13.745728    -1.051705    -3.107951    -14.330582    -6.959842    -1.479674    17.899939    -0.675386    0.193663    -13.768610    -5.561614    -0.270984    1.772829    0.299435    -1.991455    -7.758115    3.625780    3.998776    6.000940    4.311824    -6.576725    -7.907466    -14.117360    -1.142387    -0.168927    1.235861    
-9.039363    80.423149    105.601593    -2.055380    -11.426467    -176.873215    -2.434608    -16.204216    0.589553    -0.398603    9.861666    0.970640    2.555875    0.172555    -0.753856    2.657180    -12.056363    -0.509697    -0.585554    18.845551    -3.250772    -34.107109    45.087009    -50.158566    -2.444733    -5.304837    -21.141401    11.268471    -5.568321    1.942053    8.006924    18.968382    -4.972371    26.694792    48.654591    50.350368    2.049938    -13.556541    29.260288    -1.351127    -14.065444    -0.948353    -3.102441    -14.327694    -6.987175    -1.487818    17.944944    -0.652237    0.191922    -13.786454    -5.563835    -0.265028    1.773853    0.292852    -1.971488    -7.762687    3.607361    3.987937    6.072036    4.318483    -6.593053    -7.934216    -14.130722    -1.157398    -0.077772    1.251943    
-9.027831    80.418167    105.555977    -2.049617    -11.423866    -176.850876    -2.431991    -16.204615    0.602789    -0.417111    9.875748    0.985197    2.555312    0.193365    -0.784354    2.699790    -12.032461    -0.530941    -0.567621    18.823179    -3.240121    -34.209866    44.952827    -50.024227    -2.539243    -5.275384    -21.501711    10.498151    -5.579972    1.918060    7.987542    18.940762    -4.942455    26.618170    48.611877    50.335945    2.217067    -13.804397    29.710649    -0.838113    -14.369009    -0.830830    -3.094797    -14.321827    -7.010134    -1.492525    17.991737    -0.640621    0.189867    -13.806565    -5.563598    -0.259043    1.771789    0.286240    -1.948543    -7.760645    3.586196    3.976854    6.138720    4.321919    -6.608315    -7.961695    -14.141688    -1.173751    0.008793    1.269480    
-9.016590    80.413452    105.510696    -2.040465    -11.418713    -176.824783    -2.426063    -16.202560    0.614497    -0.434861    9.890660    0.997580    2.553866    0.210051    -0.814074    2.739020    -12.012384    -0.552137    -0.547345    18.798590    -3.232708    -34.303944    44.823517    -49.892235    -2.634210    -5.257329    -21.892685    9.693925    -5.605299    1.886883    7.969184    18.912491    -4.915262    26.554455    48.566322    50.310478    2.374526    -14.035312    30.178709    -0.341826    -14.653715    -0.700195    -3.084672    -14.314528    -7.025964    -1.493818    18.040392    -0.643163    0.188165    -13.829117    -5.560170    -0.253187    1.767579    0.279772    -1.923025    -7.752800    3.563490    3.965947    6.199590    4.323789    -6.623006    -7.989175    -14.152371    -1.190845    0.086615    1.287832    
